<svg width="51" height="31" viewBox="0 0 51 31" fill="none" xmlns="http://www.w3.org/2000/svg">
<path d="M29.0394 20.3805C28.9256 21.5213 30.3354 22.4503 31.7304 23.2842" stroke="#4B862F" stroke-width="0.871795" stroke-linecap="round"/>
<path d="M34.5752 26.343C33.9773 26.535 33.0665 28.2999 32.9334 28.3657C32.8003 28.4315 32.388 28.0968 32.388 28.0968" stroke="#4B862F" stroke-width="0.871795" stroke-linecap="round"/>
<path d="M36.9902 26.9618C37.5118 27.3116 37.9 29.2595 38.0098 29.3595C38.1196 29.4595 38.6081 29.2518 38.6081 29.2518" stroke="#4B862F" stroke-width="0.871795" stroke-linecap="round"/>
<path d="M41.6833 16.1304C41.7772 17.319 40.6859 20.562 40.243 21.3057C39.4275 21.8006 35.3228 19.0704 32.0992 18.1579C32.2923 17.8585 31.9264 17.4344 32.4036 17.3999C33.0001 17.3568 32.0292 16.7502 32.2558 16.8339C32.4825 16.9176 32.6072 16.3637 33.1586 16.2015C33.7101 16.0393 33.2582 15.3602 33.8428 14.9176C34.4274 14.475 34.8224 14.6355 35.114 14.67C35.4056 14.7046 35.4203 14.0807 35.7385 13.8909C36.0566 13.7011 36.6332 13.8262 36.9514 13.6364C37.2695 13.4466 37.5573 12.5139 38.2121 12.4777C38.867 12.4415 38.6892 13.4441 39.2008 13.6184C39.7125 13.7928 40.7672 12.647 41.2276 12.8347C41.8482 13.0878 41.6289 15.4415 41.6833 16.1304Z" fill="#91CE75" stroke="#86CA67" stroke-width="0.871795"/>
<path fill-rule="evenodd" clip-rule="evenodd" d="M31.202 22.3382C30.9381 21.5587 30.6073 18.3505 30.9686 17.2867C31.0186 17.1394 31.0749 16.9019 31.1407 16.6244C31.3502 15.7402 31.6559 14.4502 32.161 14.3815C32.4048 14.3484 32.7168 14.6469 33.0351 14.9514C33.3596 15.2619 33.6908 15.5787 33.963 15.5569C34.2057 15.5376 34.3501 15.3333 34.493 15.1311C34.6677 14.8841 34.8402 14.64 35.1875 14.7399C35.5954 14.8573 35.7688 15.2814 35.9127 15.6331C35.9915 15.8259 36.0615 15.9969 36.1562 16.0839C36.2901 16.2066 36.505 16.2721 36.7198 16.3376C36.9346 16.4032 37.1495 16.4687 37.2833 16.5914C37.4079 16.7056 37.447 16.8906 37.4826 17.0594C37.5236 17.2534 37.5601 17.4259 37.7166 17.4444C37.7592 17.4495 37.8045 17.4526 37.8523 17.4558C38.1331 17.4751 38.5 17.5002 38.9023 17.9589C39.1376 18.2273 39.1064 18.4908 39.0792 18.7214C39.0519 18.952 39.0285 19.1497 39.2794 19.2863C39.5506 19.4339 39.6741 19.6576 39.7683 19.8282C39.8485 19.9733 39.9074 20.08 40.0179 20.0685C40.1003 20.0599 40.1832 19.9885 40.2797 19.9055C40.4644 19.7464 40.6989 19.5444 41.0754 19.6592C41.3959 19.757 41.6427 20.1411 41.8035 20.4717C41.9745 20.6836 42.0423 21.0185 41.9818 21.5302C41.6856 24.0336 38.5523 25.9342 35.958 25.7873C33.2871 25.4711 31.7073 24.0729 31.2046 22.3405C31.2037 22.3398 31.2029 22.339 31.202 22.3382Z" fill="#8AC270"/>
<path d="M30.9686 17.2867L31.3813 17.4269L31.3813 17.4269L30.9686 17.2867ZM31.202 22.3382L30.7891 22.4779L30.8244 22.5822L30.905 22.6572L31.202 22.3382ZM31.1407 16.6244L31.5648 16.725L31.5648 16.725L31.1407 16.6244ZM32.161 14.3815L32.2197 14.8135L32.2197 14.8135L32.161 14.3815ZM33.0351 14.9514L32.7338 15.2664L32.7338 15.2664L33.0351 14.9514ZM33.963 15.5569L33.9283 15.1224L33.9283 15.1224L33.963 15.5569ZM34.493 15.1311L34.849 15.3828L34.849 15.3828L34.493 15.1311ZM35.1875 14.7399L35.3079 14.321L35.3079 14.321L35.1875 14.7399ZM35.9127 15.6331L36.3161 15.4681L36.3161 15.4681L35.9127 15.6331ZM36.1562 16.0839L36.4508 15.7626L36.4508 15.7626L36.1562 16.0839ZM37.2833 16.5914L36.9888 16.9127L36.9888 16.9127L37.2833 16.5914ZM37.4826 17.0594L37.9091 16.9693L37.9091 16.9693L37.4826 17.0594ZM37.8523 17.4558L37.882 17.0209L37.882 17.0209L37.8523 17.4558ZM38.9023 17.9589L38.5745 18.2463L38.5745 18.2463L38.9023 17.9589ZM39.2794 19.2863L39.4878 18.9034L39.4878 18.9034L39.2794 19.2863ZM39.7683 19.8282L40.1499 19.6175L40.1499 19.6175L39.7683 19.8282ZM40.0179 20.0685L40.063 20.5021L40.063 20.5021L40.0179 20.0685ZM40.2797 19.9055L40.5641 20.2358L40.5641 20.2358L40.2797 19.9055ZM41.0754 19.6592L41.2025 19.2423L41.2025 19.2423L41.0754 19.6592ZM41.8035 20.4717L41.4116 20.6624L41.4332 20.7069L41.4644 20.7455L41.8035 20.4717ZM35.958 25.7873L35.9068 26.2202L35.92 26.2218L35.9334 26.2226L35.958 25.7873ZM31.2046 22.3405L31.6232 22.2191L31.5886 22.0999L31.4964 22.0167L31.2046 22.3405ZM30.5559 17.1465C30.4439 17.4762 30.3959 17.9298 30.3799 18.4004C30.3636 18.882 30.3801 19.4227 30.416 19.9487C30.4866 20.9822 30.6373 22.0295 30.7891 22.4779L31.6149 22.1984C31.5028 21.8674 31.3562 20.9209 31.2857 19.8894C31.2511 19.383 31.2362 18.8734 31.2512 18.43C31.2666 17.9755 31.3127 17.6292 31.3813 17.4269L30.5559 17.1465ZM30.7165 16.5238C30.6483 16.8117 30.5975 17.0238 30.5559 17.1465L31.3813 17.4269C31.4397 17.255 31.5015 16.9921 31.5648 16.725L30.7165 16.5238ZM32.1023 13.9496C31.7974 13.991 31.591 14.204 31.463 14.3835C31.328 14.5728 31.2202 14.8087 31.1319 15.0439C30.9546 15.5163 30.8197 16.0883 30.7165 16.5238L31.5648 16.725C31.6712 16.2762 31.7939 15.7612 31.9481 15.3503C32.0256 15.144 32.102 14.9892 32.1729 14.8897C32.2508 14.7804 32.2721 14.8064 32.2197 14.8135L32.1023 13.9496ZM33.3364 14.6364C33.1834 14.49 33.0037 14.3171 32.8276 14.1881C32.6715 14.0739 32.4078 13.9081 32.1023 13.9496L32.2197 14.8135C32.1811 14.8187 32.1667 14.8074 32.1904 14.8171C32.2141 14.8268 32.2541 14.8487 32.3126 14.8916C32.433 14.9797 32.5685 15.1082 32.7338 15.2664L33.3364 14.6364ZM33.9283 15.1224C33.9601 15.1199 33.9216 15.1336 33.7762 15.0271C33.6466 14.9321 33.5044 14.7971 33.3364 14.6364L32.7338 15.2664C32.8904 15.4161 33.076 15.5948 33.2611 15.7304C33.4306 15.8545 33.6937 16.0157 33.9977 15.9915L33.9283 15.1224ZM34.1371 14.8795C34.0598 14.9889 34.0135 15.0514 33.9679 15.0941C33.9485 15.1121 33.937 15.1189 33.9327 15.121C33.93 15.1224 33.9297 15.1223 33.9283 15.1224L33.9977 15.9915C34.2455 15.9717 34.4305 15.8549 34.563 15.7311C34.686 15.6163 34.7834 15.4756 34.849 15.3828L34.1371 14.8795ZM35.3079 14.321C34.999 14.2321 34.7303 14.2982 34.5179 14.4538C34.3411 14.5833 34.2136 14.7713 34.1371 14.8795L34.849 15.3828C34.8945 15.3185 34.9287 15.2703 34.9629 15.2288C34.9965 15.1881 35.0191 15.1673 35.0332 15.157C35.0446 15.1486 35.0448 15.1512 35.0374 15.1526C35.0297 15.154 35.0364 15.15 35.067 15.1588L35.3079 14.321ZM36.3161 15.4681C36.2474 15.3002 36.1519 15.0622 36.0091 14.853C35.861 14.6358 35.6407 14.4167 35.3079 14.321L35.067 15.1588C35.1421 15.1804 35.2125 15.232 35.289 15.3442C35.3709 15.4643 35.434 15.6143 35.5092 15.7981L36.3161 15.4681ZM36.4508 15.7626C36.4623 15.7731 36.4496 15.7652 36.4177 15.702C36.3878 15.6426 36.3573 15.5688 36.3161 15.4681L35.5092 15.7981C35.5469 15.8902 35.5908 15.9983 35.6393 16.0944C35.6858 16.1866 35.7555 16.3077 35.8617 16.4051L36.4508 15.7626ZM36.8469 15.9207C36.7353 15.8867 36.6481 15.8597 36.5731 15.8289C36.4975 15.7979 36.4637 15.7744 36.4508 15.7626L35.8617 16.4051C35.9827 16.5161 36.1232 16.5867 36.2423 16.6355C36.3618 16.6845 36.4895 16.7231 36.5927 16.7546L36.8469 15.9207ZM37.5779 16.2701C37.4569 16.1592 37.3164 16.0886 37.1973 16.0398C37.0778 15.9908 36.9501 15.9522 36.8469 15.9207L36.5927 16.7546C36.7043 16.7886 36.7915 16.8156 36.8665 16.8464C36.9421 16.8774 36.9759 16.9009 36.9888 16.9127L37.5779 16.2701ZM37.9091 16.9693C37.8925 16.8906 37.868 16.7712 37.8258 16.6555C37.7825 16.537 37.7103 16.3915 37.5779 16.2701L36.9888 16.9127C36.9809 16.9055 36.9905 16.9097 37.0069 16.9544C37.0242 17.0019 37.0371 17.0594 37.0562 17.1495L37.9091 16.9693ZM37.7678 17.0115C37.787 17.0138 37.8101 17.0192 37.8347 17.0297C37.8594 17.0403 37.8812 17.0541 37.8994 17.0694C37.9348 17.0989 37.9479 17.1263 37.9485 17.1275C37.9488 17.1282 37.944 17.1178 37.9357 17.0868C37.9275 17.056 37.9199 17.0202 37.9091 16.9693L37.0562 17.1495C37.0731 17.2295 37.1021 17.38 37.1641 17.5079C37.2386 17.6615 37.3919 17.8449 37.6654 17.8773L37.7678 17.0115ZM37.882 17.0209C37.8318 17.0175 37.7977 17.0151 37.7678 17.0115L37.6654 17.8773C37.7207 17.8838 37.7771 17.8876 37.8225 17.8907L37.882 17.0209ZM39.23 17.6715C38.9852 17.3924 38.7341 17.2274 38.484 17.1341C38.2409 17.0435 38.0209 17.0305 37.882 17.0209L37.8225 17.8907C37.9645 17.9004 38.0683 17.9096 38.1795 17.951C38.2836 17.9898 38.417 18.0667 38.5745 18.2463L39.23 17.6715ZM39.512 18.7727C39.5398 18.5382 39.6016 18.0953 39.23 17.6715L38.5745 18.2463C38.6335 18.3135 38.6507 18.3667 38.6576 18.4156C38.6667 18.4792 38.6608 18.5477 38.6463 18.6702L39.512 18.7727ZM39.4878 18.9034C39.4667 18.8919 39.4701 18.8895 39.4804 18.9025C39.4919 18.9171 39.4977 18.9327 39.4996 18.9406C39.5005 18.9446 39.498 18.9363 39.4992 18.9051C39.5005 18.8721 39.5048 18.834 39.512 18.7727L38.6463 18.6702C38.6351 18.765 38.6077 18.9536 38.6503 19.1376C38.7032 19.3655 38.8468 19.5471 39.0711 19.6691L39.4878 18.9034ZM40.1499 19.6175C40.0552 19.4461 39.8805 19.1172 39.4878 18.9034L39.0711 19.6691C39.2207 19.7506 39.293 19.8691 39.3867 20.0389L40.1499 19.6175ZM39.9728 19.6349C40.0236 19.6296 40.0799 19.6383 40.1313 19.6628C40.1772 19.6847 40.2018 19.711 40.2075 19.7175C40.2127 19.7233 40.2098 19.7213 40.1973 19.7009C40.1849 19.6806 40.1711 19.6559 40.1499 19.6175L39.3867 20.0389C39.4183 20.096 39.4779 20.2088 39.556 20.2967C39.6528 20.4056 39.823 20.527 40.063 20.5021L39.9728 19.6349ZM39.9952 19.5752C39.9702 19.5967 39.9512 19.613 39.9337 19.6274C39.9163 19.6416 39.9053 19.6498 39.8984 19.6544C39.8914 19.6592 39.8939 19.6567 39.9043 19.6522C39.9152 19.6474 39.9388 19.6384 39.9728 19.6349L40.063 20.5021C40.2094 20.4868 40.322 20.4207 40.3886 20.3754C40.4564 20.3293 40.5211 20.2728 40.5641 20.2358L39.9952 19.5752ZM41.2025 19.2423C40.5788 19.0521 40.1732 19.4219 39.9952 19.5752L40.5641 20.2358C40.6633 20.1504 40.7206 20.105 40.7796 20.0794C40.8193 20.0621 40.8654 20.0509 40.9482 20.0762L41.2025 19.2423ZM42.1955 20.2811C42.1074 20.1 41.9885 19.8885 41.8372 19.7028C41.69 19.5222 41.4809 19.3272 41.2025 19.2423L40.9482 20.0762C40.9903 20.089 41.0649 20.135 41.1614 20.2535C41.2539 20.367 41.3389 20.5129 41.4116 20.6624L42.1955 20.2811ZM41.4644 20.7455C41.5251 20.8207 41.6045 21.0092 41.5489 21.479L42.4146 21.5815C42.4802 21.0278 42.424 20.5465 42.1427 20.198L41.4644 20.7455ZM41.5489 21.479C41.4206 22.5632 40.6679 23.565 39.5884 24.2909C38.5119 25.0148 37.1726 25.4195 35.9826 25.3521L35.9334 26.2226C37.3376 26.302 38.8622 25.8299 40.0749 25.0144C41.2847 24.2008 42.2467 23.0007 42.4146 21.5815L41.5489 21.479ZM36.0092 25.3545C33.4762 25.0545 32.0677 23.751 31.6232 22.2191L30.786 22.462C31.3468 24.3947 33.0979 25.8876 35.9068 26.2202L36.0092 25.3545ZM30.905 22.6572C30.9077 22.6597 30.9103 22.6621 30.9128 22.6644L31.4964 22.0167C31.4972 22.0174 31.498 22.0182 31.499 22.0191L30.905 22.6572Z" fill="#7FBF61"/>
<path fill-rule="evenodd" clip-rule="evenodd" d="M43.1143 24.569C43.6339 23.7732 45.0315 20.3502 45.1042 18.4597C45.1769 16.5692 44.919 15.7291 44.1722 15.4473C43.8979 15.3438 43.4538 15.5909 43.0005 15.843C42.5385 16.0999 42.0671 16.3622 41.7565 16.2636C41.4797 16.1757 41.3677 15.9088 41.2567 15.6446C41.1212 15.3218 40.9873 15.0028 40.5563 15.0192C40.0502 15.0383 39.7327 15.4632 39.4694 15.8155C39.3251 16.0086 39.1971 16.18 39.0632 16.2508C38.8741 16.3509 38.6064 16.3652 38.3388 16.3794C38.0712 16.3936 37.8036 16.4079 37.6144 16.508C37.4385 16.6011 37.3425 16.7964 37.255 16.9746C37.1543 17.1794 37.0649 17.3615 36.8778 17.3393C36.827 17.3333 36.7735 17.3244 36.7171 17.315C36.3853 17.2596 35.952 17.1873 35.3591 17.5882C35.0123 17.8227 34.9765 18.1246 34.9453 18.3888C34.914 18.6531 34.8872 18.8795 34.5582 18.963C34.2027 19.0533 33.998 19.2686 33.8419 19.4328C33.7091 19.5725 33.6115 19.6752 33.4862 19.6322C33.3927 19.6001 33.3159 19.498 33.2264 19.3792C33.0551 19.1515 32.8376 18.8625 32.3687 18.8875C31.9695 18.9087 31.5776 19.269 31.3004 19.5932C31.0437 19.7823 30.8735 20.1367 30.8041 20.7231C30.4648 23.5915 33.5881 26.5642 36.6439 27.1098C39.835 27.4876 42.0532 26.3625 43.1106 24.571C43.1118 24.5703 43.113 24.5697 43.1143 24.569Z" fill="#C4E897"/>
<path d="M45.1042 18.4597L44.6686 18.4429L45.1042 18.4597ZM43.1143 24.569L43.4792 24.8074L43.4186 24.9003L43.3209 24.9529L43.1143 24.569ZM44.1722 15.4473L44.3261 15.0395L44.1722 15.4473ZM43.0005 15.843L43.2124 16.2239L43.2124 16.2239L43.0005 15.843ZM41.7565 16.2636L41.6247 16.679L41.6247 16.679L41.7565 16.2636ZM41.2567 15.6446L41.6586 15.4759L41.6586 15.4759L41.2567 15.6446ZM40.5563 15.0192L40.5729 15.4548L40.5729 15.4548L40.5563 15.0192ZM39.4694 15.8155L39.1202 15.5546L39.1202 15.5546L39.4694 15.8155ZM39.0632 16.2508L38.8593 15.8656L38.8593 15.8656L39.0632 16.2508ZM37.6144 16.508L37.4105 16.1227L37.4105 16.1227L37.6144 16.508ZM37.255 16.9746L37.6462 17.1668L37.6462 17.1668L37.255 16.9746ZM36.7171 17.315L36.6454 17.7449L36.6454 17.7449L36.7171 17.315ZM35.3591 17.5882L35.115 17.227L35.115 17.227L35.3591 17.5882ZM34.5582 18.963L34.6655 19.3855L34.6655 19.3855L34.5582 18.963ZM33.8419 19.4328L33.526 19.1325L33.526 19.1325L33.8419 19.4328ZM33.4862 19.6322L33.6276 19.2199L33.6276 19.2199L33.4862 19.6322ZM33.2264 19.3792L32.8782 19.6413L32.8782 19.6413L33.2264 19.3792ZM32.3687 18.8875L32.3919 19.3228L32.3919 19.3228L32.3687 18.8875ZM31.3004 19.5932L31.6317 19.8765L31.5993 19.9144L31.5591 19.944L31.3004 19.5932ZM36.6439 27.1098L36.5927 27.5426L36.5799 27.5411L36.5673 27.5389L36.6439 27.1098ZM43.1106 24.571L42.7352 24.3494L42.7989 24.2415L42.9101 24.1839L43.1106 24.571ZM45.5398 18.4765C45.5007 19.492 45.1132 20.8732 44.6876 22.0709C44.2623 23.2675 43.769 24.3636 43.4792 24.8074L42.7493 24.3307C42.9792 23.9787 43.4445 22.9653 43.8661 21.7789C44.2874 20.5934 44.635 19.3178 44.6686 18.4429L45.5398 18.4765ZM44.3261 15.0395C44.8493 15.2369 45.1817 15.638 45.362 16.2216C45.5335 16.777 45.5765 17.5214 45.5398 18.4765L44.6686 18.4429C44.7046 17.5074 44.655 16.8865 44.529 16.4788C44.4118 16.0993 44.2419 15.9395 44.0184 15.8552L44.3261 15.0395ZM42.7886 15.462C43.008 15.34 43.2588 15.1996 43.4923 15.1067C43.7046 15.0223 44.0229 14.9251 44.3261 15.0395L44.0184 15.8552C44.0473 15.8661 44.0063 15.8406 43.8146 15.9168C43.6442 15.9846 43.4463 16.0938 43.2124 16.2239L42.7886 15.462ZM41.8884 15.8481C41.8828 15.8463 41.8985 15.8528 41.9502 15.8448C42.0017 15.8368 42.0709 15.8173 42.1605 15.7816C42.3436 15.7087 42.5509 15.5942 42.7886 15.462L43.2124 16.2239C42.9882 16.3487 42.7287 16.4938 42.483 16.5916C42.2537 16.6829 41.9337 16.7772 41.6247 16.679L41.8884 15.8481ZM41.6586 15.4759C41.718 15.6172 41.757 15.7058 41.8031 15.7725C41.8412 15.8277 41.8665 15.8411 41.8884 15.8481L41.6247 16.679C41.1228 16.5197 40.9461 16.0306 40.8548 15.8133L41.6586 15.4759ZM40.5398 14.5836C40.8888 14.5703 41.155 14.7023 41.344 14.9161C41.5048 15.0982 41.5979 15.3313 41.6586 15.4759L40.8548 15.8133C40.8197 15.7297 40.7922 15.6647 40.7626 15.6067C40.7335 15.5498 40.7098 15.515 40.6906 15.4933C40.6736 15.474 40.6625 15.4677 40.6551 15.4645C40.6476 15.4612 40.6246 15.4528 40.5729 15.4548L40.5398 14.5836ZM39.1202 15.5546C39.2469 15.3851 39.419 15.1519 39.6358 14.9635C39.8604 14.7681 40.1577 14.5981 40.5398 14.5836L40.5729 15.4548C40.4488 15.4595 40.3343 15.5114 40.2078 15.6214C40.0735 15.7382 39.9553 15.8936 39.8186 16.0765L39.1202 15.5546ZM38.8593 15.8656C38.8561 15.8672 38.8799 15.8539 38.9353 15.7909C38.9882 15.7308 39.0453 15.6549 39.1202 15.5546L39.8186 16.0765C39.7493 16.1693 39.6702 16.2756 39.5896 16.3671C39.5114 16.4559 39.4042 16.5636 39.2671 16.6361L38.8593 15.8656ZM38.3156 15.9441C38.4537 15.9368 38.5672 15.9304 38.6683 15.9159C38.7702 15.9012 38.8282 15.882 38.8593 15.8656L39.2671 16.6361C39.109 16.7198 38.9386 16.7577 38.7926 16.7788C38.6457 16.7999 38.4916 16.8078 38.362 16.8147L38.3156 15.9441ZM37.4105 16.1227C37.5686 16.039 37.739 16.0011 37.885 15.98C38.032 15.9589 38.1861 15.951 38.3156 15.9441L38.362 16.8147C38.224 16.822 38.1104 16.8284 38.0093 16.8429C37.9074 16.8576 37.8494 16.8768 37.8183 16.8933L37.4105 16.1227ZM36.8637 16.7823C36.9352 16.6369 37.0866 16.2941 37.4105 16.1227L37.8183 16.8933C37.814 16.8956 37.7943 16.9076 37.7606 16.9565C37.7249 17.0085 37.6925 17.0725 37.6462 17.1668L36.8637 16.7823ZM36.929 16.9064C36.9153 16.9048 36.8968 16.9045 36.8752 16.9079C36.8535 16.9113 36.8331 16.9179 36.815 16.9264C36.7798 16.9431 36.7648 16.9618 36.7672 16.9591C36.7702 16.9556 36.7807 16.9418 36.7994 16.9083C36.8182 16.8747 36.8375 16.8358 36.8637 16.7823L37.6462 17.1668C37.6036 17.2535 37.5317 17.4062 37.4304 17.525C37.3088 17.6675 37.1068 17.8054 36.8266 17.7722L36.929 16.9064ZM36.7887 16.885C36.8474 16.8948 36.8904 16.9019 36.929 16.9064L36.8266 17.7722C36.7636 17.7647 36.6995 17.754 36.6454 17.7449L36.7887 16.885ZM35.115 17.227C35.466 16.9897 35.789 16.8808 36.0874 16.8473C36.3784 16.8147 36.6244 16.8576 36.7887 16.885L36.6454 17.7449C36.478 17.717 36.3414 17.6961 36.1847 17.7137C36.0352 17.7304 35.8452 17.7858 35.6033 17.9493L35.115 17.227ZM34.5124 18.3376C34.5445 18.0663 34.5936 17.5795 35.115 17.227L35.6033 17.9493C35.5034 18.0168 35.4621 18.0815 35.4375 18.142C35.4069 18.2169 35.3947 18.3006 35.3782 18.4401L34.5124 18.3376ZM34.4509 18.5405C34.489 18.5309 34.4967 18.5227 34.4909 18.527C34.4882 18.5291 34.4846 18.5323 34.4811 18.5365C34.4795 18.5385 34.4783 18.5402 34.4774 18.5415C34.4765 18.5428 34.4762 18.5436 34.4762 18.5435C34.4769 18.5422 34.4831 18.5292 34.4906 18.492C34.4985 18.4529 34.5041 18.4074 34.5124 18.3376L35.3782 18.4401C35.365 18.5511 35.3458 18.7598 35.2506 18.9439C35.1344 19.1688 34.9345 19.3173 34.6655 19.3855L34.4509 18.5405ZM33.526 19.1325C33.6843 18.966 33.9637 18.6642 34.4509 18.5405L34.6655 19.3855C34.4417 19.4423 34.3117 19.5713 34.1579 19.7332L33.526 19.1325ZM33.6276 19.2199C33.6094 19.2137 33.5873 19.2086 33.5621 19.2069C33.5369 19.2051 33.5126 19.207 33.4906 19.2114C33.4475 19.22 33.4226 19.2362 33.4196 19.2383C33.4173 19.2398 33.4247 19.235 33.446 19.2145C33.4673 19.1941 33.4911 19.1692 33.526 19.1325L34.1579 19.7332C34.1035 19.7904 34.0093 19.893 33.903 19.9638C33.7728 20.0505 33.575 20.1235 33.3448 20.0445L33.6276 19.2199ZM33.5747 19.1171C33.5978 19.1477 33.6159 19.1718 33.6331 19.1935C33.6501 19.2149 33.6623 19.229 33.6711 19.2384C33.6801 19.2479 33.6817 19.2482 33.6764 19.2443C33.6707 19.2401 33.6542 19.229 33.6276 19.2199L33.3448 20.0445C33.2012 19.9953 33.1006 19.9037 33.0385 19.8381C32.9759 19.7721 32.9188 19.6952 32.8782 19.6413L33.5747 19.1171ZM32.3455 18.4522C33.062 18.4141 33.4052 18.8918 33.5747 19.1171L32.8782 19.6413C32.7875 19.5209 32.7267 19.4448 32.6531 19.3913C32.5953 19.3493 32.5214 19.3159 32.3919 19.3228L32.3455 18.4522ZM30.9691 19.3098C31.1195 19.134 31.3116 18.9354 31.5318 18.7746C31.7476 18.6171 32.0268 18.4692 32.3455 18.4522L32.3919 19.3228C32.3114 19.3271 32.1951 19.3699 32.0458 19.4788C31.901 19.5845 31.7586 19.7281 31.6317 19.8765L30.9691 19.3098ZM31.5591 19.944C31.4462 20.0272 31.3009 20.234 31.237 20.7744L30.3713 20.6718C30.4461 20.0394 30.6413 19.5375 31.0417 19.2423L31.5591 19.944ZM31.237 20.7744C31.088 22.0336 31.6978 23.371 32.7656 24.486C33.8295 25.597 35.2935 26.4259 36.7204 26.6806L36.5673 27.5389C34.9384 27.2481 33.3129 26.3178 32.136 25.089C30.9631 23.8642 30.1809 22.281 30.3713 20.6718L31.237 20.7744ZM36.6951 26.6769C39.7584 27.0396 41.786 25.9577 42.7352 24.3494L43.486 24.7926C42.3205 26.7673 39.9116 27.9356 36.5927 27.5426L36.6951 26.6769ZM43.3209 24.9529C43.3177 24.9546 43.3144 24.9563 43.3111 24.9581L42.9101 24.1839C42.9092 24.1844 42.9084 24.1848 42.9076 24.1852L43.3209 24.9529Z" fill="#B6E081"/>
<path d="M38.79 25.1767C40.4614 24.2567 43.2949 19.9738 43.3481 18.1259" stroke="#D2F6A3" stroke-width="0.871795" stroke-linecap="round"/>
<path d="M42.4759 20.3073C42.3306 20.0164 42.0398 19.3475 42.0398 18.9985" stroke="#D2F6A3" stroke-width="0.871795" stroke-linecap="round"/>
<path d="M39.8594 24.2337C39.5445 23.749 38.9727 22.5468 39.2053 21.6161" stroke="#D2F6A3" stroke-width="0.871795" stroke-linecap="round"/>
<path d="M41.2593 22.4474C41.0862 22.1056 40.7781 21.251 40.9307 20.5674" stroke="#D2F6A3" stroke-width="0.871795" stroke-linecap="round"/>
<path d="M40.0775 24.2337C40.6589 24.0641 41.8945 23.6229 42.1852 23.2158" stroke="#D2F6A3" stroke-width="0.871795" stroke-linecap="round"/>
<path d="M41.6764 22.1978C42.0641 22.1008 42.8975 21.8488 43.13 21.6161" stroke="#D2F6A3" stroke-width="0.871795" stroke-linecap="round"/>
<path d="M42.6213 20.1618C42.9847 20.1134 43.7406 19.9728 43.8569 19.7983" stroke="#D2F6A3" stroke-width="0.871795" stroke-linecap="round"/>
<path d="M36.736 23.8707C36.6603 23.6815 36.4089 23.3923 36.0092 23.7491" stroke="#4B862F" stroke-width="0.653846" stroke-linecap="round"/>
<path d="M33.8288 23.4335C33.7384 23.2509 33.4651 22.9824 33.0947 23.3696" stroke="#4B862F" stroke-width="0.653846" stroke-linecap="round"/>
<path d="M34.3477 24.0108C34.3381 24.0865 34.3434 24.1634 34.3635 24.237C34.3836 24.3106 34.418 24.3795 34.4647 24.4399C34.5114 24.5002 34.5695 24.5507 34.6357 24.5886C34.702 24.6264 34.775 24.6508 34.8506 24.6604C34.9263 24.6701 35.0031 24.6647 35.0767 24.6446C35.1503 24.6245 35.2192 24.5901 35.2795 24.5434C35.3398 24.4967 35.3903 24.4385 35.4281 24.3722C35.4659 24.306 35.4903 24.2329 35.5 24.1572L34.9238 24.084L34.3477 24.0108Z" fill="#4B862F"/>
<path d="M41.7927 25.7613C42.3961 25.9355 43.1599 26.5207 43.4937 27.7345" stroke="#4B862F" stroke-width="0.871795" stroke-linecap="round"/>
<path opacity="0.2" d="M32.3232 29.7912C32.3232 29.9901 34.015 30.1513 36.102 30.1513C38.1891 30.1513 39.8809 30.2413 39.8809 29.7912C39.8809 29.3411 38.1891 29.4311 36.102 29.4311C34.015 29.4311 32.3232 29.5923 32.3232 29.7912Z" fill="#4B862F"/>
<path d="M27.1153 19.6452C27.227 20.7645 25.8437 21.6761 24.4749 22.4944" stroke="#4B862F" stroke-width="0.871795" stroke-linecap="round"/>
<path d="M21.6726 26.2928C22.285 26.3611 23.5043 27.8811 23.6451 27.9184C23.7859 27.9558 24.1172 27.5536 24.1172 27.5536" stroke="#4B862F" stroke-width="0.871795" stroke-linecap="round"/>
<path d="M18.6712 27.3013C18.218 27.719 18.1346 29.6661 18.0432 29.7796C17.9518 29.8931 17.4468 29.7652 17.4468 29.7652" stroke="#4B862F" stroke-width="0.871795" stroke-linecap="round"/>
<path d="M8.88484 11.1442C8.84482 13.1397 10.3315 18.6646 10.9005 19.9433C11.896 20.8253 16.5935 16.4751 20.3566 15.1322C20.1099 14.6165 20.5179 13.9244 19.9507 13.8377C19.2417 13.7294 20.3552 12.7665 20.0918 12.8938C19.8284 13.0212 19.6475 12.0811 18.9847 11.775C18.3219 11.4689 18.8165 10.3527 18.0976 9.57255C17.3787 8.79236 16.9205 9.0389 16.5773 9.07955C16.234 9.1202 16.1792 8.06907 15.7911 7.73045C15.4029 7.39183 14.7276 7.56794 14.3394 7.22932C13.9512 6.8907 13.5546 5.30318 12.7769 5.20297C11.9992 5.10276 12.2698 6.80136 11.6743 7.06416C11.0788 7.32696 9.76116 5.33486 9.22715 5.6233C8.50733 6.0121 8.90804 9.98767 8.88484 11.1442Z" fill="#91CE75" stroke="#86CA67" stroke-width="0.871795"/>
<path fill-rule="evenodd" clip-rule="evenodd" d="M24.7996 12.535C24.6592 11.062 24.3163 9.05712 23.7726 7.9314C22.9653 6.2599 22.3551 5.65087 21.5784 5.75079C21.2931 5.7875 21.022 6.2062 20.7453 6.63343C20.4633 7.06897 20.1756 7.51338 19.8611 7.57103C19.5808 7.62242 19.3609 7.44284 19.1431 7.26502C18.8771 7.04775 18.6142 6.83312 18.2484 7.04581C17.8186 7.29565 17.7391 7.81 17.6732 8.23659C17.6371 8.47039 17.605 8.67783 17.5216 8.80093C17.4038 8.97479 17.1785 9.11043 16.9532 9.24607C16.7279 9.38172 16.5025 9.51736 16.3847 9.69121C16.2751 9.85296 16.2819 10.0664 16.2881 10.2611C16.2952 10.4849 16.3015 10.6839 16.1292 10.7509C16.0824 10.7691 16.0319 10.786 15.9787 10.8039C15.6658 10.9088 15.2571 11.0458 14.9279 11.6662C14.7353 12.0292 14.8434 12.3073 14.9379 12.5507C15.0325 12.794 15.1135 13.0025 14.8669 13.2265C14.7521 13.3307 14.6932 13.463 14.6669 13.6053C11.3826 14.6799 11.2334 16.8205 13.6194 23.6063C14.6458 26.248 18.7203 27.3846 21.6191 26.4494C25.548 24.9214 25.6232 22.066 25.5538 19.122C25.2777 17.5897 25.1969 16.2472 25.1297 15.1312C25.0637 14.036 25.0109 13.1591 24.7996 12.535Z" fill="#C4E897"/>
<path d="M23.7726 7.9314L23.3801 8.1211L23.7726 7.9314ZM24.7996 12.535L24.3868 12.6749L24.3705 12.6269L24.3657 12.5765L24.7996 12.535ZM21.5784 5.75079L21.6339 6.18317L21.6339 6.18317L21.5784 5.75079ZM20.7453 6.63343L21.1112 6.87033L21.1112 6.87033L20.7453 6.63343ZM19.8611 7.57103L19.7826 7.14224L19.7826 7.14224L19.8611 7.57103ZM19.1431 7.26502L18.8674 7.60272L18.8674 7.60272L19.1431 7.26502ZM18.2484 7.04581L18.0294 6.66894L18.2484 7.04581ZM17.6732 8.23659L18.104 8.30306L18.104 8.30307L17.6732 8.23659ZM17.5216 8.80093L17.8824 9.04543L17.8824 9.04543L17.5216 8.80093ZM16.9532 9.24607L16.7285 8.87259L16.7285 8.87259L16.9532 9.24607ZM16.3847 9.69121L16.024 9.44672L16.024 9.44672L16.3847 9.69121ZM16.2881 10.2611L15.8524 10.275L15.8524 10.275L16.2881 10.2611ZM15.9787 10.8039L16.1171 11.2172L16.1171 11.2172L15.9787 10.8039ZM14.9279 11.6662L14.5429 11.462L14.5429 11.462L14.9279 11.6662ZM14.8669 13.2265L15.1598 13.5492L15.1598 13.5492L14.8669 13.2265ZM14.6669 13.6053L15.0955 13.6845L15.0484 13.9391L14.8023 14.0196L14.6669 13.6053ZM13.6194 23.6063L13.2131 23.7643L13.2105 23.7577L13.2082 23.7511L13.6194 23.6063ZM21.6191 26.4494L21.7769 26.8557L21.765 26.8603L21.7528 26.8642L21.6191 26.4494ZM25.5538 19.122L25.9828 19.0445L25.9888 19.0778L25.9896 19.1116L25.5538 19.122ZM25.1297 15.1312L24.6946 15.1575L24.6946 15.1575L25.1297 15.1312ZM24.165 7.7417C24.7454 8.94327 25.0928 11.0166 25.2335 12.4935L24.3657 12.5765C24.2257 11.1074 23.8871 9.17097 23.3801 8.1211L24.165 7.7417ZM21.5229 5.31842C22.0701 5.24803 22.5452 5.44365 22.9714 5.86769C23.3768 6.27092 23.7571 6.89712 24.165 7.7417L23.3801 8.1211C22.9807 7.29417 22.6524 6.78012 22.3566 6.48594C22.0818 6.21257 21.8634 6.15364 21.6339 6.18317L21.5229 5.31842ZM20.3795 6.39653C20.5133 6.18984 20.6663 5.95219 20.8263 5.76364C20.9715 5.59251 21.2043 5.35942 21.5229 5.31842L21.6339 6.18317C21.6672 6.17888 21.6217 6.17349 21.4909 6.32769C21.3748 6.46447 21.254 6.64979 21.1112 6.87033L20.3795 6.39653ZM19.7826 7.14224C19.7811 7.14251 19.8469 7.12256 19.983 6.96201C20.1077 6.81497 20.2343 6.62075 20.3795 6.39653L21.1112 6.87033C20.9743 7.08165 20.816 7.32741 20.6477 7.52587C20.4909 7.71082 20.2555 7.9419 19.9396 7.99982L19.7826 7.14224ZM19.4188 6.92732C19.5354 7.02255 19.6094 7.08075 19.6791 7.11683C19.7365 7.14653 19.7627 7.1459 19.7826 7.14224L19.9396 7.99982C19.4271 8.09378 19.0458 7.74838 18.8674 7.60272L19.4188 6.92732ZM18.0294 6.66894C18.3279 6.49541 18.6218 6.48688 18.8862 6.58596C19.1109 6.67017 19.2999 6.83023 19.4188 6.92732L18.8674 7.60272C18.7984 7.5464 18.7449 7.50294 18.6928 7.46658C18.6418 7.43092 18.6059 7.41205 18.5801 7.4024C18.5574 7.39389 18.5462 7.39381 18.5396 7.39434C18.533 7.39487 18.5103 7.39768 18.4673 7.42269L18.0294 6.66894ZM17.2425 8.17012C17.2742 7.96511 17.3161 7.68285 17.4175 7.41874C17.5226 7.14487 17.7029 6.85875 18.0294 6.66894L18.4673 7.42269C18.3641 7.48272 18.2898 7.57868 18.2313 7.73109C18.169 7.89327 18.1382 8.08148 18.104 8.30306L17.2425 8.17012ZM17.1608 8.55644C17.158 8.56061 17.1722 8.53923 17.1911 8.45945C17.2092 8.3834 17.2237 8.29168 17.2425 8.17012L18.104 8.30307C18.0866 8.41531 18.067 8.54421 18.0392 8.6611C18.0123 8.77427 17.9687 8.91816 17.8824 9.04543L17.1608 8.55644ZM16.7285 8.87259C16.8448 8.80257 16.9399 8.74493 17.0205 8.68602C17.1017 8.62658 17.1423 8.58388 17.1608 8.55644L17.8824 9.04543C17.7832 9.19184 17.6522 9.30389 17.535 9.38965C17.4171 9.47593 17.2869 9.55393 17.1779 9.61956L16.7285 8.87259ZM16.024 9.44672C16.1232 9.30031 16.2542 9.18826 16.3714 9.1025C16.4893 9.01622 16.6195 8.93821 16.7285 8.87259L17.1779 9.61956C17.0616 9.68958 16.9665 9.74721 16.8859 9.80613C16.8047 9.86557 16.7641 9.90826 16.7455 9.93571L16.024 9.44672ZM15.8524 10.275C15.8474 10.1168 15.8204 9.74712 16.024 9.44672L16.7455 9.93571C16.7438 9.93826 16.7326 9.95634 16.726 10.0134C16.719 10.0742 16.7204 10.144 16.7237 10.2472L15.8524 10.275ZM15.9714 10.3446C15.958 10.3498 15.9412 10.3584 15.9235 10.3717C15.9056 10.3852 15.8904 10.4009 15.8782 10.4172C15.8545 10.4491 15.8497 10.4734 15.8503 10.4707C15.8512 10.467 15.8539 10.4508 15.8547 10.4134C15.8555 10.3759 15.8543 10.3335 15.8524 10.275L16.7237 10.2472C16.7267 10.3416 16.7348 10.5082 16.7014 10.659C16.6613 10.8403 16.5484 11.0556 16.2871 11.1572L15.9714 10.3446ZM15.8403 10.3906C15.8957 10.372 15.9359 10.3584 15.9714 10.3446L16.2871 11.1572C16.2288 11.1799 16.1682 11.2001 16.1171 11.2172L15.8403 10.3906ZM14.5429 11.462C14.7384 11.0936 14.969 10.8493 15.2133 10.682C15.4514 10.5189 15.6853 10.4425 15.8403 10.3906L16.1171 11.2172C15.9592 11.2702 15.8323 11.3147 15.7056 11.4014C15.585 11.484 15.4466 11.6185 15.3129 11.8705L14.5429 11.462ZM14.5316 12.7086C14.4345 12.4587 14.2516 12.0111 14.5429 11.462L15.3129 11.8705C15.2583 11.9735 15.2525 12.047 15.2589 12.1092C15.2668 12.1869 15.2942 12.2641 15.3442 12.3927L14.5316 12.7086ZM14.5739 12.9038C14.6018 12.8785 14.604 12.8686 14.6004 12.8763C14.5958 12.8861 14.5944 12.897 14.5945 12.9009C14.5945 12.9012 14.5945 12.8978 14.593 12.8895C14.5915 12.881 14.5887 12.8688 14.5836 12.8518C14.5726 12.8147 14.5567 12.773 14.5316 12.7086L15.3442 12.3927C15.3837 12.4945 15.4638 12.6856 15.4662 12.8908C15.469 13.1419 15.363 13.3647 15.1598 13.5492L14.5739 12.9038ZM14.2383 13.5261C14.2773 13.3152 14.3717 13.0875 14.5739 12.9038L15.1598 13.5492C15.1325 13.574 15.1091 13.6109 15.0955 13.6845L14.2383 13.5261ZM14.8023 14.0196C14.0155 14.2771 13.4659 14.5833 13.0968 14.9686C12.7367 15.3445 12.5174 15.8281 12.4505 16.5068C12.3824 17.1977 12.4737 18.0821 12.7393 19.2339C13.0042 20.3824 13.4361 21.7709 14.0306 23.4616L13.2082 23.7511C12.6097 22.0489 12.1655 20.6251 11.8899 19.4301C11.6151 18.2384 11.5015 17.2483 11.583 16.4215C11.6657 15.5824 11.9504 14.9053 12.4674 14.3655C12.9754 13.8352 13.6761 13.4708 14.5315 13.191L14.8023 14.0196ZM14.0256 23.4483C14.475 24.605 15.6164 25.4815 17.0536 25.9552C18.4853 26.4271 20.1335 26.4706 21.4853 26.0345L21.7528 26.8642C20.2058 27.3634 18.3673 27.3062 16.7806 26.7832C15.1991 26.262 13.7901 25.2494 13.2131 23.7643L14.0256 23.4483ZM21.4612 26.0431C23.3278 25.3172 24.2293 24.3022 24.6803 23.157C25.1447 21.9777 25.153 20.6138 25.1181 19.1323L25.9896 19.1116C26.0241 20.5741 26.0294 22.11 25.4914 23.4764C24.9398 24.8769 23.8393 26.0536 21.7769 26.8557L21.4612 26.0431ZM25.1249 19.1994C24.8437 17.639 24.7618 16.2732 24.6946 15.1575L25.5648 15.1049C25.632 16.2211 25.7117 17.5404 25.9828 19.0445L25.1249 19.1994ZM24.6946 15.1575C24.6271 14.037 24.5749 13.2304 24.3868 12.6749L25.2124 12.395C25.447 13.0877 25.5003 14.0351 25.5648 15.1049L24.6946 15.1575Z" fill="#B6E081"/>
<path d="M19.8566 16.9159C21.0536 15.476 22.1067 10.5478 21.4931 8.84088" stroke="#E0FFBA" stroke-width="0.871795" stroke-linecap="round"/>
<path d="M21.4782 11.1461C21.2412 10.9326 20.7359 10.4259 20.6109 10.1071" stroke="#E0FFBA" stroke-width="0.871795" stroke-linecap="round"/>
<path d="M20.4955 15.6709C20.0341 15.3411 19.0811 14.4482 18.9599 13.5147" stroke="#E0FFBA" stroke-width="0.871795" stroke-linecap="round"/>
<path d="M21.1339 13.5373C20.8533 13.2871 20.2656 12.6171 20.16 11.9379" stroke="#E0FFBA" stroke-width="0.871795" stroke-linecap="round"/>
<path d="M20.6946 15.5927C21.1649 15.2292 22.1353 14.3831 22.2549 13.9069" stroke="#E0FFBA" stroke-width="0.871795" stroke-linecap="round"/>
<path d="M21.4255 13.1596C21.7448 12.932 22.4156 12.4029 22.5447 12.1069" stroke="#E0FFBA" stroke-width="0.871795" stroke-linecap="round"/>
<path d="M21.5588 10.9612C21.8734 10.7865 22.5134 10.387 22.5571 10.1859" stroke="#E0FFBA" stroke-width="0.871795" stroke-linecap="round"/>
<path fill-rule="evenodd" clip-rule="evenodd" d="M9.43347 16.8937C8.86637 15.5271 8.22865 13.5957 8.18062 12.3463C8.10931 10.4913 8.36236 9.66702 9.0951 9.39054C9.36427 9.28897 9.80009 9.53138 10.2448 9.77874C10.6981 10.0309 11.1607 10.2882 11.4654 10.1915C11.7371 10.1052 11.847 9.84337 11.9559 9.58412C12.0889 9.26733 12.2203 8.9544 12.6431 8.97042C13.1398 8.98924 13.4513 9.40609 13.7096 9.75183C13.8512 9.94132 13.9768 10.1094 14.1082 10.179C14.2938 10.2772 14.5564 10.2911 14.819 10.3051C15.0816 10.3191 15.3442 10.3331 15.5298 10.4313C15.7024 10.5226 15.7966 10.7143 15.8825 10.8891C15.9812 11.0901 16.069 11.2687 16.2525 11.247C16.3024 11.2411 16.3549 11.2323 16.4103 11.2231C16.7358 11.1688 17.161 11.0979 17.7427 11.4912C18.0831 11.7213 18.1181 12.0176 18.1488 12.2768C18.1795 12.5361 18.2058 12.7583 18.5286 12.8402C18.6788 12.8784 18.7929 12.9676 18.8829 13.0808C22.2871 12.4875 23.4231 14.3076 24.4997 21.42C24.8327 24.2346 21.7681 27.1514 18.7696 27.6867C14.5835 28.1824 13.1775 25.6963 11.8576 23.0641C11.3826 21.5814 10.8242 20.358 10.36 19.341C9.90444 18.3431 9.53965 17.544 9.43347 16.8937Z" fill="#BFE897"/>
<path d="M8.18062 12.3463L8.61619 12.3295L8.18062 12.3463ZM9.43347 16.8937L9.86366 16.8234L9.85549 16.7734L9.83607 16.7266L9.43347 16.8937ZM9.0951 9.39054L9.24894 9.79838L9.24894 9.79838L9.0951 9.39054ZM10.2448 9.77874L10.0329 10.1597L10.0329 10.1597L10.2448 9.77874ZM11.4654 10.1915L11.3336 9.776L11.3336 9.776L11.4654 10.1915ZM11.9559 9.58412L12.3578 9.75283L12.3578 9.75283L11.9559 9.58412ZM12.6431 8.97042L12.6266 9.40601L12.6266 9.40601L12.6431 8.97042ZM13.7096 9.75183L14.0588 9.49089L14.0588 9.49089L13.7096 9.75183ZM14.1082 10.179L13.9043 10.5643L13.9043 10.5643L14.1082 10.179ZM14.819 10.3051L14.8422 9.86983L14.8422 9.86983L14.819 10.3051ZM15.5298 10.4313L15.3259 10.8166L15.3259 10.8166L15.5298 10.4313ZM15.8825 10.8891L15.4913 11.0814L15.4913 11.0814L15.8825 10.8891ZM16.4103 11.2231L16.3386 10.7931L16.3386 10.7931L16.4103 11.2231ZM17.7427 11.4912L17.4986 11.8523L17.7427 11.4912ZM18.5286 12.8402L18.6359 12.4177L18.6359 12.4177L18.5286 12.8402ZM18.8829 13.0808L18.5416 13.352L18.7026 13.5547L18.9577 13.5102L18.8829 13.0808ZM24.4997 21.42L24.9326 21.3687L24.9318 21.3617L24.9307 21.3547L24.4997 21.42ZM18.7696 27.6867L18.8209 28.1196L18.8336 28.1181L18.8462 28.1158L18.7696 27.6867ZM11.8576 23.0641L11.4425 23.1971L11.4528 23.2293L11.468 23.2595L11.8576 23.0641ZM10.36 19.341L10.7565 19.16L10.7565 19.16L10.36 19.341ZM7.74505 12.3631C7.79632 13.6966 8.46226 15.6906 9.03086 17.0608L9.83607 16.7266C9.27049 15.3636 8.66099 13.4947 8.61619 12.3295L7.74505 12.3631ZM8.94125 8.98271C8.42502 9.1775 8.09733 9.57329 7.91986 10.1479C7.7511 10.6943 7.70902 11.4258 7.74505 12.3631L8.61619 12.3295C8.58091 11.4118 8.62969 10.8037 8.75282 10.4051C8.86723 10.0347 9.03244 9.88007 9.24894 9.79838L8.94125 8.98271ZM10.4567 9.39779C10.2416 9.27813 9.99497 9.14012 9.76525 9.04875C9.55675 8.96582 9.24188 8.86927 8.94125 8.98271L9.24894 9.79838C9.2175 9.81024 9.25512 9.78411 9.443 9.85884C9.60965 9.92512 9.80332 10.032 10.0329 10.1597L10.4567 9.39779ZM11.3336 9.776C11.335 9.77554 11.2676 9.78878 11.0721 9.71094C10.893 9.63966 10.6901 9.52761 10.4567 9.39779L10.0329 10.1597C10.2528 10.282 10.5079 10.4247 10.7496 10.5209C10.9749 10.6106 11.2912 10.7041 11.5973 10.6069L11.3336 9.776ZM11.554 9.4154C11.4957 9.55425 11.4577 9.64037 11.4131 9.70495C11.3763 9.75812 11.3529 9.76986 11.3336 9.776L11.5973 10.6069C12.094 10.4492 12.2686 9.9652 12.3578 9.75283L11.554 9.4154ZM12.6597 8.53483C12.3147 8.52176 12.0511 8.65226 11.8641 8.86388C11.7052 9.04374 11.6134 9.27384 11.554 9.4154L12.3578 9.75283C12.3923 9.67071 12.4192 9.60719 12.448 9.55065C12.4764 9.49518 12.4993 9.46166 12.5175 9.44105C12.5335 9.42288 12.5434 9.41752 12.5495 9.41491C12.5556 9.41226 12.5768 9.40413 12.6266 9.40601L12.6597 8.53483ZM14.0588 9.49089C13.9346 9.32473 13.7652 9.09518 13.5518 8.90958C13.3304 8.71712 13.037 8.54913 12.6597 8.53483L12.6266 9.40601C12.7459 9.41053 12.8565 9.46037 12.9797 9.56748C13.1108 9.68145 13.2262 9.83319 13.3604 10.0128L14.0588 9.49089ZM14.3121 9.79368C14.3166 9.79604 14.294 9.7838 14.2399 9.72227C14.1882 9.66361 14.1324 9.5894 14.0588 9.49089L13.3604 10.0128C13.4284 10.1037 13.5062 10.2083 13.5856 10.2985C13.6625 10.3858 13.7685 10.4924 13.9043 10.5643L14.3121 9.79368ZM14.8422 9.86983C14.7066 9.86262 14.5956 9.85639 14.4969 9.84218C14.3973 9.82784 14.3414 9.80918 14.3121 9.79368L13.9043 10.5643C14.0606 10.647 14.2288 10.6844 14.3726 10.7051C14.5172 10.7259 14.6687 10.7336 14.7958 10.7404L14.8422 9.86983ZM15.7337 10.046C15.5774 9.96327 15.4091 9.92584 15.2654 9.90515C15.1208 9.88433 14.9692 9.87659 14.8422 9.86983L14.7958 10.7404C14.9313 10.7476 15.0424 10.7538 15.1411 10.7681C15.2407 10.7824 15.2966 10.8011 15.3259 10.8166L15.7337 10.046ZM16.2737 10.6968C16.2039 10.5548 16.0543 10.2157 15.7337 10.046L15.3259 10.8166C15.3286 10.818 15.347 10.8287 15.3796 10.876C15.4143 10.9264 15.4457 10.9887 15.4913 11.0814L16.2737 10.6968ZM16.2013 10.8141C16.2155 10.8125 16.2344 10.8121 16.2564 10.8156C16.2785 10.8191 16.2993 10.8258 16.3177 10.8345C16.3536 10.8515 16.3691 10.8707 16.3673 10.8686C16.3649 10.8657 16.3549 10.8527 16.3366 10.82C16.3183 10.7874 16.2995 10.7494 16.2737 10.6968L15.4913 11.0814C15.5329 11.1661 15.6039 11.317 15.7041 11.4345C15.8247 11.5758 16.0253 11.7129 16.3038 11.6799L16.2013 10.8141ZM16.3386 10.7931C16.281 10.8028 16.2391 10.8097 16.2013 10.8141L16.3038 11.6799C16.3658 11.6725 16.4289 11.6619 16.482 11.6531L16.3386 10.7931ZM17.9869 11.13C17.6414 10.8965 17.3232 10.7891 17.0291 10.7561C16.7422 10.7239 16.4998 10.7663 16.3386 10.7931L16.482 11.6531C16.6463 11.6257 16.7792 11.6054 16.9318 11.6225C17.077 11.6388 17.2623 11.6926 17.4986 11.8523L17.9869 11.13ZM18.5817 12.2256C18.5502 11.9592 18.5017 11.4781 17.9869 11.13L17.4986 11.8523C17.5952 11.9176 17.6347 11.9798 17.6583 12.0377C17.6878 12.11 17.6997 12.1911 17.7159 12.3281L18.5817 12.2256ZM18.6359 12.4177C18.5994 12.4085 18.5929 12.4008 18.5996 12.4059C18.6083 12.4124 18.6146 12.4214 18.6164 12.4248C18.6165 12.4251 18.6149 12.4221 18.6123 12.414C18.6097 12.4058 18.6065 12.3938 18.603 12.3764C18.5953 12.3384 18.5898 12.2942 18.5817 12.2256L17.7159 12.3281C17.7288 12.4366 17.7477 12.643 17.8419 12.8252C17.9572 13.0482 18.1554 13.1952 18.4213 13.2627L18.6359 12.4177ZM19.2242 12.8096C19.0908 12.6417 18.9006 12.4849 18.6359 12.4177L18.4213 13.2627C18.457 13.2718 18.495 13.2934 18.5416 13.352L19.2242 12.8096ZM18.9577 13.5102C19.7732 13.3681 20.4021 13.3804 20.9088 13.5473C21.4031 13.7102 21.8237 14.0342 22.2011 14.6021C22.5854 15.1802 22.9198 16.0041 23.2256 17.1458C23.5305 18.2843 23.8005 19.7132 24.0687 21.4853L24.9307 21.3547C24.6606 19.5706 24.3849 18.1048 24.0677 16.9202C23.7513 15.7389 23.387 14.8112 22.9272 14.1194C22.4605 13.4174 21.8915 12.9531 21.1817 12.7193C20.4843 12.4896 19.6947 12.4968 18.8081 12.6514L18.9577 13.5102ZM24.0668 21.4712C24.2126 22.7036 23.616 24.0135 22.5692 25.1066C21.5263 26.1956 20.0913 27.008 18.6931 27.2576L18.8462 28.1158C20.4464 27.8302 22.043 26.9165 23.1988 25.7096C24.3506 24.5067 25.1198 22.951 24.9326 21.3687L24.0668 21.4712ZM18.7184 27.2538C16.7297 27.4893 15.4574 27.0164 14.522 26.217C13.5586 25.3937 12.9115 24.1933 12.2473 22.8687L11.468 23.2595C12.1237 24.5672 12.8395 25.9259 13.9556 26.8798C15.0997 27.8575 16.6235 28.3798 18.8209 28.1196L18.7184 27.2538ZM12.2727 22.9311C11.789 21.4212 11.2206 20.1767 10.7565 19.16L9.96342 19.5221C10.4278 20.5393 10.9762 21.7417 11.4425 23.1971L12.2727 22.9311ZM10.7565 19.16C10.2904 18.139 9.95818 17.4022 9.86366 16.8234L9.00327 16.964C9.12113 17.6857 9.51846 18.5473 9.96342 19.5221L10.7565 19.16Z" fill="#B4E187"/>
<path d="M17.7551 22.251C17.8294 22.0653 18.076 21.7816 18.4682 22.1316" stroke="#4B862F" stroke-width="0.653846" stroke-linecap="round"/>
<path d="M15.2449 18.802C13.5681 17.9693 10.6131 13.888 10.4844 12.0786" stroke="#E0FFBA" stroke-width="0.871795" stroke-linecap="round"/>
<path d="M11.4297 14.181C11.5602 13.8898 11.8175 13.222 11.803 12.8798" stroke="#E0FFBA" stroke-width="0.871795" stroke-linecap="round"/>
<path d="M14.1574 17.9219C14.446 17.4336 14.9568 16.2313 14.6902 15.3285" stroke="#E0FFBA" stroke-width="0.871795" stroke-linecap="round"/>
<path d="M12.711 16.2287C12.8666 15.8864 13.1333 15.0358 12.9554 14.3719" stroke="#E0FFBA" stroke-width="0.871795" stroke-linecap="round"/>
<path d="M13.9436 17.9309C13.3665 17.7887 12.137 17.4074 11.8351 17.0203" stroke="#E0FFBA" stroke-width="0.871795" stroke-linecap="round"/>
<path d="M12.2918 16.0012C11.9078 15.9222 11.0803 15.7096 10.8427 15.4911" stroke="#E0FFBA" stroke-width="0.871795" stroke-linecap="round"/>
<path d="M11.2812 14.0444C10.9229 14.0119 10.1761 13.9055 10.0549 13.7392" stroke="#E0FFBA" stroke-width="0.871795" stroke-linecap="round"/>
<path d="M20.6077 21.822C20.6964 21.6428 20.9646 21.3794 21.328 21.7593" stroke="#4B862F" stroke-width="0.653846" stroke-linecap="round"/>
<path d="M20.0986 22.3884C20.108 22.4627 20.1027 22.5381 20.083 22.6103C20.0633 22.6826 20.0296 22.7502 19.9838 22.8094C19.938 22.8686 19.8809 22.9182 19.8159 22.9553C19.751 22.9924 19.6793 23.0164 19.6051 23.0258C19.5308 23.0353 19.4555 23.03 19.3833 23.0103C19.3111 22.9906 19.2434 22.9568 19.1843 22.911C19.1251 22.8651 19.0756 22.8081 19.0385 22.743C19.0013 22.678 18.9774 22.6063 18.9679 22.5321L19.5333 22.4603L20.0986 22.3884Z" fill="#4B862F"/>
<path d="M14.6014 24.9249C14.0094 25.0959 13.2599 25.67 12.9324 26.8611" stroke="#4B862F" stroke-width="0.871795" stroke-linecap="round"/>
<path opacity="0.3" d="M16.1585 30.0442C16.1585 30.3839 16.8304 30.3839 17.6593 30.3839C18.4882 30.3839 19.1601 30.2318 19.1601 30.0442C19.1601 29.8566 18.4882 29.7045 17.6593 29.7045C16.8304 29.7045 16.1585 29.5346 16.1585 30.0442Z" fill="#4B862F"/>
</svg>
